<?xml version="1.0" encoding="UTF-8" standalone="no"?>
<!-- Created with Inkscape (http://www.inkscape.org/) -->

<svg
   xmlns:dc="http://purl.org/dc/elements/1.1/"
   xmlns:cc="http://creativecommons.org/ns#"
   xmlns:rdf="http://www.w3.org/1999/02/22-rdf-syntax-ns#"
   xmlns:svg="http://www.w3.org/2000/svg"
   xmlns="http://www.w3.org/2000/svg"
   xmlns:sodipodi="http://sodipodi.sourceforge.net/DTD/sodipodi-0.dtd"
   xmlns:inkscape="http://www.inkscape.org/namespaces/inkscape"
   version="1.1"
   id="svg2"
   xml:space="preserve"
   width="150"
   height="95"
   viewBox="0 0 150 95"
   sodipodi:docname="geoestrategias_web.svg"
   inkscape:version="0.92.4 (5da689c313, 2019-01-14)"><metadata
     id="metadata8"><rdf:RDF><cc:Work
         rdf:about=""><dc:format>image/svg+xml</dc:format><dc:type
           rdf:resource="http://purl.org/dc/dcmitype/StillImage" /><dc:title></dc:title></cc:Work></rdf:RDF></metadata><defs
     id="defs6"><clipPath
       clipPathUnits="userSpaceOnUse"
       id="clipPath18"><path
         d="M 0,450 H 780 V 0 H 0 Z"
         id="path16"
         inkscape:connector-curvature="0" /></clipPath><clipPath
       clipPathUnits="userSpaceOnUse"
       id="clipPath240"><path
         d="M 0,450 H 780 V 0 H 0 Z"
         id="path238"
         inkscape:connector-curvature="0" /></clipPath><clipPath
       clipPathUnits="userSpaceOnUse"
       id="clipPath248"><path
         d="M 16.3389,424.047 H 753.939 v -282.6 H 16.3389 Z"
         id="path246"
         inkscape:connector-curvature="0" /></clipPath><clipPath
       clipPathUnits="userSpaceOnUse"
       id="clipPath324"><path
         d="m 271.384,198.533 c 15.051,-20.211 35.691,-36.65 60.801,-46.71 v 0 l 20.7,51.5 c -30.63,12.249 -52.168,40.782 -53.739,77.894 v 0 c -1.059,-34.224 -11.864,-61.057 -27.762,-82.684"
         id="path322"
         inkscape:connector-curvature="0" /></clipPath><clipPath
       clipPathUnits="userSpaceOnUse"
       id="clipPath332"><path
         d="m 214.74,297.719 h 127 v -127 h -127 z"
         id="path330"
         inkscape:connector-curvature="0" /></clipPath><clipPath
       clipPathUnits="userSpaceOnUse"
       id="clipPath336"><path
         d="m 214.74,297.719 h 127 v -127 h -127 z"
         id="path334"
         inkscape:connector-curvature="0" /></clipPath></defs><sodipodi:namedview
     pagecolor="#ffffff"
     bordercolor="#666666"
     borderopacity="1"
     objecttolerance="10"
     gridtolerance="10"
     guidetolerance="10"
     inkscape:pageopacity="0"
     inkscape:pageshadow="2"
     inkscape:window-width="1920"
     inkscape:window-height="1013"
     id="namedview4"
     showgrid="false"
     inkscape:zoom="4"
     inkscape:cx="95.462098"
     inkscape:cy="63.095941"
     inkscape:window-x="-9"
     inkscape:window-y="29"
     inkscape:window-maximized="1"
     inkscape:current-layer="g10" /><g
     id="g10"
     inkscape:groupmode="layer"
     inkscape:label="logo_geoestrategias"
     transform="matrix(1.3333333,0,0,-1.3333333,0,95)"><g
       id="g244" /><g
       id="g318"><g
         id="g320"
         clip-path="url(#clipPath324)"><g
           id="g326"><g
             id="g328" /><g
             id="g348"><g
               clip-path="url(#clipPath332)"
               id="g346"
               style="opacity:0.60000598"><g
                 id="g344"><g
                   id="g338" /><g
                   id="g342"><g
                     clip-path="url(#clipPath336)"
                     id="g340" /></g></g></g></g></g></g></g><g
       id="g1403"
       transform="matrix(0.14771061,0,0,0.14771061,-0.54662367,2.9707599)"
       style="fill:#343a40;fill-opacity:1;stroke:#343a40;stroke-opacity:1"><g
         style="stroke:#343a40;stroke-opacity:1;fill:#343a40;fill-opacity:1"
         transform="translate(470.069,288.1367)"
         id="g284" /><g
         style="stroke:#343a40;stroke-opacity:1;fill:#343a40;fill-opacity:1"
         transform="translate(328.6588,412.2969)"
         id="g288" /></g><g
       id="g1397"
       transform="matrix(0.14771061,0,0,0.14771061,-0.54662367,2.9707599)"
       style="stroke:#343a40;stroke-opacity:1;fill:#343a40;fill-opacity:1"><g
         style="fill:#343a40;fill-opacity:1;stroke:#343a40;stroke-opacity:1"
         id="g1335"><g
           style="fill:#343a40;fill-opacity:1;stroke:#343a40;stroke-opacity:1"
           id="g260"
           transform="translate(612.4386,196.9468)" /><g
           style="fill:#343a40;fill-opacity:1;stroke:#343a40;stroke-opacity:1"
           id="g264"
           transform="translate(526.089,282.7466)" /></g></g><g
       id="g276"
       transform="matrix(0.14771061,0,0,0.14771061,64.082485,64.115094)"
       style="fill:#ff7300;fill-opacity:1;stroke:#ff7300;stroke-opacity:1" /><g
       id="g1213"
       transform="matrix(0.80770508,0,0,0.80770508,1.9973508,6.803474)"><g
         style="fill:#ff7300;fill-opacity:1"
         transform="matrix(0.14771061,0,0,0.14771061,-0.54662367,2.9707599)"
         id="g1643"><g
           style="fill:#ff7300;fill-opacity:1"
           id="g20"
           transform="translate(736.8868,157.0269)"><path
             d="M 0,0 C 2.101,0 3.4,1 3.4,2.8 3.4,4.6 2.101,5.5 0,5.5 H -3.199 V 0 Z m 2.601,-1.5 3.2,-4.4 h -2.7 l -2.601,4 h -0.6 -3.2 v -4 H -5.6 V 7.3 h 5.5 c 3.6,0 5.6,-1.6 5.6,-4.5 0,-2.1 -1,-3.6 -2.899,-4.3 m 8.5,1.9 c 0,6 -5,10.9 -11.401,10.9 -6.5,0 -11.399,-5 -11.399,-11 0,-6 4.899,-10.9 11.399,-10.9 6.401,0 11.401,5 11.401,11 m 2.299,0 c 0,-7.2 -6,-13.3 -13.799,-13.3 -7.701,0 -13.701,6 -13.701,13.3 0,7.2 6,13.3 13.8,13.3 7.7,-0.1 13.7,-6 13.7,-13.3"
             style="fill:#ff7300;fill-opacity:1;fill-rule:nonzero;stroke:none"
             id="path22"
             inkscape:connector-curvature="0" /></g><g
           style="fill:#ff7300;fill-opacity:1"
           id="g24"
           transform="translate(114.587,109.4273)"><path
             d="m 0,0 c -3.5,-2 -6.1,-4.601 -8.1,-8.101 -2,-3.5 -2.9,-7.5 -2.9,-11.899 0,-1.101 0,-2 0.1,-2.5 l 43.8,8.199 c -1,5 -3.4,9.2 -7.2,12.401 C 21.8,1.3 17.1,2.899 11.5,2.899 7.3,3 3.5,2 0,0 m 24.5,-42 c 3.2,1.399 6.1,3.199 8.3,5.8 l 4.7,-5.2 c -2.7,-3.201 -6.2,-5.601 -10.3,-7.3 -4.1,-1.601 -8.6,-2.5 -13.5,-2.5 -6.3,0 -12.1,1.399 -17,4 -5,2.599 -8.8,6.2 -11.6,10.899 -2.7,4.601 -4.1,9.901 -4.1,15.8 0,5.801 1.4,11.101 4,15.801 2.6,4.599 6.2,8.199 10.9,10.8 4.6,2.599 9.9,3.899 15.8,3.899 5.5,0 10.4,-1.199 14.9,-3.6 4.5,-2.5 8,-5.799 10.6,-10.2 2.6,-4.399 4,-9.3 4.2,-14.8 l -51,-9.599 c 1.6,-4.801 4.5,-8.7 8.6,-11.401 4.1,-2.7 9.1,-4.2 14.8,-4.2 C 17.7,-44 21.3,-43.4 24.5,-42"
             style="fill:#ff7300;fill-opacity:1;fill-rule:nonzero;stroke:none"
             id="path26"
             inkscape:connector-curvature="0" /></g><g
           style="fill:#ff7300;fill-opacity:1"
           id="g28"
           transform="translate(169.7872,60.3267)"><path
             d="m 0,0 c -4.6,1.4 -8.2,3.2 -10.8,5.3 l 3.7,6.3 C -4.5,9.6 -1.3,8 2.7,6.8 6.7,5.601 10.8,4.9 15,4.9 c 5.7,0 9.8,0.9 12.6,2.6 2.7,1.7 4.1,4.101 4.1,7.2 0,2.2 -0.7,4 -2.2,5.2 -1.5,1.201 -3.4,2.201 -5.7,2.9 -2.2,0.6 -5.3,1.2 -9.1,1.9 -5.1,0.901 -9.1,1.901 -12.2,2.901 -3.1,1 -5.7,2.599 -7.8,4.799 -2.1,2.201 -3.2,5.5 -3.2,9.4 0,5 2.1,9.2 6.5,12.3 4.4,3.2 10.3,4.8 18,4.8 4,0 8.1,-0.5 12.1,-1.5 4,-1 7.3,-2.4 9.9,-4.1 L 34.3,47 C 29.2,50.5 23.1,52.101 16,52.101 10.7,52.101 6.6,51.2 3.9,49.4 1.3,47.5 -0.2,45.2 -0.2,42.2 c 0,-2.2 0.7,-4.1 2.4,-5.5 1.5,-1.4 3.5,-2.4 5.7,-3 2.2,-0.6 5.5,-1.4 9.4,-2 5,-0.9 9,-1.9 11.9,-2.7 3,-0.9 5.6,-2.5 7.7,-4.7 2.1,-2.2 3.2,-5.2 3.2,-9.2 C 40.1,9.9 37.9,5.7 33.3,2.5 28.8,-0.6 22.5,-2.1 14.5,-2.1 9.5,-2.1 4.6,-1.399 0,0"
             style="fill:#ff7300;fill-opacity:1;fill-rule:nonzero;stroke:none"
             id="path30"
             inkscape:connector-curvature="0" /></g><g
           style="fill:#ff7300;fill-opacity:1"
           id="g32"
           transform="translate(247.2872,62.4273)"><path
             d="M 0,0 C -1.6,-1.4 -3.5,-2.4 -5.8,-3.101 -8,-3.801 -10.5,-4.2 -13,-4.2 c -5.8,0 -10.3,1.5 -13.4,4.599 -3.1,3 -4.7,7.3 -4.7,12.901 v 56.3 h 8.3 V 56.399 H -4.2 V 49.6 H -23 V 13.699 c 0,-3.599 0.9,-6.3 2.7,-8.2 1.9,-1.899 4.5,-2.899 8,-2.899 3.7,0 6.8,1 9.2,3.099 z"
             style="fill:#ff7300;fill-opacity:1;fill-rule:nonzero;stroke:none"
             id="path34"
             inkscape:connector-curvature="0" /></g><g
           style="fill:#ff7300;fill-opacity:1"
           id="g36"
           transform="translate(270.4874,116.3267)"><path
             d="M 0,0 C 3.9,2.101 8.7,3.101 14.4,3.101 V -4.7 l -2,0.1 C 5.8,-4.6 0.7,-6.6 -2.9,-10.399 -6.6,-14.3 -8.5,-19.7 -8.5,-26.7 v -30.6 h -8.3 v 60 h 8.1 V -9.1 c 1.9,4 4.8,7.1 8.7,9.1"
             style="fill:#ff7300;fill-opacity:1;fill-rule:nonzero;stroke:none"
             id="path38"
             inkscape:connector-curvature="0" /></g><g
           style="fill:#ff7300;fill-opacity:1"
           id="g40"
           transform="translate(327.2872,68.4273)"><path
             d="m 0,0 c 3.5,2 6.2,4.699 8.2,8.3 2,3.599 3,7.7 3,12.2 0,4.6 -1,8.699 -3,12.199 C 6.2,36.3 3.5,39 0,41 c -3.5,2 -7.5,2.899 -11.8,2.899 -4.3,0 -8.3,-1 -11.8,-2.899 -3.5,-2 -6.2,-4.7 -8.2,-8.301 -2,-3.599 -3,-7.699 -3,-12.199 0,-4.601 1,-8.7 3,-12.2 2,-3.601 4.7,-6.3 8.2,-8.3 3.5,-2 7.5,-2.9 11.8,-2.9 C -7.3,-3 -3.5,-2 0,0 m 19.6,50.5 v -60 H 11.5 V 2.399 c -2.5,-4 -5.8,-7.099 -9.9,-9.2 -4.1,-2.099 -8.8,-3.2 -14,-3.2 -5.8,0 -11.1,1.2 -15.8,3.9 -4.7,2.6 -8.5,6.201 -11.1,10.8 -2.7,4.601 -4,9.901 -4,15.901 0,6 1.4,11.2 4,15.899 2.7,4.601 6.3,8.2 11.1,10.801 4.7,2.599 9.9,3.899 15.8,3.899 5.1,0 9.6,-1 13.7,-3 4.1,-2 7.3,-5 9.9,-8.8 V 50.8 h 8.5 v -0.3 z"
             style="fill:#ff7300;fill-opacity:1;fill-rule:nonzero;stroke:none"
             id="path42"
             inkscape:connector-curvature="0" /></g><g
           style="fill:#ff7300;fill-opacity:1"
           id="g44"
           transform="translate(386.4874,62.4273)"><path
             d="M 0,0 C -1.6,-1.4 -3.5,-2.4 -5.8,-3.101 -8,-3.801 -10.5,-4.2 -13,-4.2 c -5.8,0 -10.3,1.5 -13.4,4.599 -3.1,3 -4.7,7.3 -4.7,12.901 v 56.3 h 8.3 V 56.399 H -4 V 49.6 H -22.8 V 13.699 c 0,-3.599 0.9,-6.3 2.7,-8.2 1.8,-1.899 4.5,-2.899 8,-2.899 3.7,0 6.8,1 9.2,3.099 z"
             style="fill:#ff7300;fill-opacity:1;fill-rule:nonzero;stroke:none"
             id="path46"
             inkscape:connector-curvature="0" /></g><g
           style="fill:#ff7300;fill-opacity:1"
           id="g48"
           transform="translate(407.3873,109.4273)"><path
             d="m 0,0 c -3.5,-2 -6.1,-4.601 -8.1,-8.101 -2,-3.5 -2.9,-7.5 -2.9,-11.899 0,-1.101 0,-2 0.1,-2.5 l 43.8,8.199 c -1,5 -3.4,9.2 -7.2,12.401 C 21.8,1.3 17.1,2.899 11.5,2.899 7.3,3 3.4,2 0,0 m 24.4,-42 c 3.2,1.399 6.1,3.199 8.3,5.8 l 4.7,-5.2 c -2.7,-3.201 -6.2,-5.601 -10.3,-7.3 -4.1,-1.601 -8.6,-2.5 -13.5,-2.5 -6.3,0 -12.1,1.399 -17,4 -5,2.599 -8.8,6.2 -11.6,10.899 -2.7,4.601 -4.1,9.901 -4.1,15.8 0,5.801 1.4,11.101 4,15.801 2.6,4.599 6.2,8.199 10.9,10.8 4.6,2.599 9.9,3.899 15.8,3.899 5.5,0 10.4,-1.199 14.9,-3.6 4.5,-2.5 8,-5.799 10.6,-10.2 2.6,-4.399 4,-9.3 4.2,-14.8 l -51,-9.599 c 1.6,-4.801 4.5,-8.7 8.6,-11.401 4.1,-2.7 9.1,-4.2 14.8,-4.2 C 17.6,-44 21.1,-43.4 24.4,-42"
             style="fill:#ff7300;fill-opacity:1;fill-rule:nonzero;stroke:none"
             id="path50"
             inkscape:connector-curvature="0" /></g><g
           style="fill:#ff7300;fill-opacity:1"
           id="g52"
           transform="translate(498.1871,70.5269)"><path
             d="m 0,0 c 3.6,1.9 6.5,4.5 8.5,7.8 2,3.4 3,7.2 3,11.4 0,4.2 -1,8.1 -3,11.3 -2,3.399 -4.8,5.8 -8.3,7.7 -3.6,1.9 -7.7,2.9 -12.2,2.9 -4.5,0 -8.6,-0.9 -12.1,-2.701 -3.6,-1.899 -6.3,-4.5 -8.3,-7.699 -2,-3.4 -3,-7.2 -3,-11.4 0,-4.2 1,-8.1 3,-11.401 2,-3.399 4.8,-6 8.3,-7.799 3.6,-1.9 7.6,-2.9 12.1,-2.9 4.3,-0.1 8.4,0.9 12,2.8 M 18.4,47.7 V -5.1 c 0,-10.2 -2.6,-17.8 -7.7,-22.6 -5.1,-5 -12.9,-7.3 -23.4,-7.3 -5.7,0 -11.2,0.9 -16.4,2.5 -5.1,1.6 -9.3,3.9 -12.6,6.8 l 4.2,6.2 c 3,-2.6 6.6,-4.6 10.9,-6.1 4.4,-1.5 8.8,-2.1 13.5,-2.1 7.8,0 13.7,1.7 17.4,5.3 3.7,3.5 5.6,9.1 5.6,16.5 v 7.7 c -2.6,-3.9 -6,-6.7 -10.2,-8.7 -4.2,-2 -8.8,-3 -14,-3 -5.8,0 -11.1,1.2 -15.9,3.7 -4.7,2.5 -8.5,6 -11.2,10.4 -2.7,4.5 -4.1,9.4 -4.1,15.2 0,5.6 1.4,10.7 4.1,15 2.7,4.5 6.5,7.8 11.2,10.3 4.7,2.5 10.1,3.6 15.9,3.6 5.2,0 10.1,-1 14.3,-3.1 4.2,-2.1 7.7,-5 10.3,-9 v 11.6 h 8 v -0.1 z"
             style="fill:#ff7300;fill-opacity:1;fill-rule:nonzero;stroke:none"
             id="path54"
             inkscape:connector-curvature="0" /></g><path
           d="m 524.487,118.927 h 8.3 v -60 h -8.3 z m 0,14.9 c -1.1,1.1 -1.7,2.5 -1.7,4.1 0,1.5 0.6,2.9 1.7,4 1.101,1.1 2.6,1.699 4.4,1.699 1.701,0 3.201,-0.5 4.4,-1.599 1.1,-1.1 1.7,-2.401 1.7,-4 0,-1.6 -0.6,-3.1 -1.7,-4.2 -1.1,-1.1 -2.6,-1.701 -4.4,-1.701 -1.8,-0.099 -3.3,0.601 -4.4,1.701"
           style="fill:#ff7300;fill-opacity:1;fill-rule:nonzero;stroke:none"
           id="path56"
           inkscape:connector-curvature="0" /><g
           style="fill:#ff7300;fill-opacity:1"
           id="g58"
           transform="translate(584.087,68.4273)"><path
             d="m 0,0 c 3.5,2 6.2,4.699 8.2,8.3 2,3.599 3,7.7 3,12.2 0,4.6 -1,8.699 -3,12.199 C 6.2,36.3 3.5,39 0,41 c -3.5,2 -7.5,2.899 -11.8,2.899 -4.3,0 -8.3,-1 -11.8,-2.899 -3.5,-2 -6.2,-4.7 -8.2,-8.301 -2,-3.599 -3,-7.699 -3,-12.199 0,-4.601 1,-8.7 3,-12.2 2,-3.601 4.7,-6.3 8.2,-8.3 3.5,-2 7.5,-2.9 11.8,-2.9 C -7.4,-3 -3.6,-2 0,0 m 19.5,50.5 v -60 H 11.4 V 2.399 c -2.5,-4 -5.8,-7.099 -9.9,-9.2 -4.1,-2.099 -8.8,-3.2 -14,-3.2 -5.8,0 -11.1,1.2 -15.8,3.9 -4.7,2.6 -8.5,6.201 -11.1,10.8 -2.7,4.601 -4,9.901 -4,15.901 0,6 1.4,11.2 4,15.899 2.7,4.601 6.3,8.2 11.1,10.801 4.7,2.599 9.9,3.899 15.8,3.899 5.1,0 9.6,-1 13.7,-3 4.1,-2 7.3,-5 9.9,-8.8 V 50.8 h 8.501 v -0.3 z"
             style="fill:#ff7300;fill-opacity:1;fill-rule:nonzero;stroke:none"
             id="path60"
             inkscape:connector-curvature="0" /></g><g
           style="fill:#ff7300;fill-opacity:1"
           id="g62"
           transform="translate(621.1876,60.3267)"><path
             d="m 0,0 c -4.601,1.4 -8.2,3.2 -10.801,5.3 l 3.7,6.3 C -4.5,9.6 -1.301,8 2.699,6.8 6.699,5.6 10.8,4.9 15,4.9 c 5.699,0 9.8,0.9 12.6,2.6 2.7,1.7 4.099,4.101 4.099,7.2 0,2.2 -0.699,4 -2.199,5.2 -1.5,1.201 -3.4,2.201 -5.7,2.9 -2.2,0.6 -5.3,1.2 -9.101,1.9 C 9.6,25.601 5.6,26.601 2.5,27.601 c -3.101,1 -5.7,2.599 -7.801,4.799 -2.099,2.201 -3.199,5.5 -3.199,9.4 0,5 2.1,9.2 6.5,12.3 4.399,3.2 10.3,4.8 18,4.8 4,0 8.1,-0.5 12.1,-1.5 4,-1 7.299,-2.4 9.9,-4.1 L 34.399,46.8 C 29.3,50.3 23.199,51.9 16.1,51.9 10.8,51.9 6.699,51 4,49.2 1.399,47.3 -0.101,45 -0.101,42 c 0,-2.2 0.701,-4.1 2.401,-5.5 1.5,-1.4 3.5,-2.4 5.7,-3 2.199,-0.6 5.5,-1.4 9.399,-2 5,-0.9 9,-1.9 11.901,-2.7 3,-0.9 5.599,-2.5 7.7,-4.7 2.1,-2.2 3.2,-5.2 3.2,-9.2 C 40.2,9.7 38,5.5 33.399,2.3 28.899,-0.8 22.6,-2.3 14.6,-2.3 9.3,-2.1 4.6,-1.399 0,0"
             style="fill:#ff7300;fill-opacity:1;fill-rule:nonzero;stroke:none"
             id="path64"
             inkscape:connector-curvature="0" /></g></g><g
         transform="matrix(0.14771061,0,0,0.14771061,-0.54662367,2.9707599)"
         id="g1729"><g
           id="g66"
           transform="translate(95.6871,33.9273)"><path
             d="m 0,0 h 1 v -12.5 h 7.9 v -0.9 H 0 Z"
             style="fill:#313a3f;fill-opacity:1;fill-rule:nonzero;stroke:none"
             id="path68"
             inkscape:connector-curvature="0" /></g><g
           id="g70"
           transform="translate(95.6871,33.9273)"><path
             d="m 0,0 h 1 v -12.5 h 7.9 v -0.9 H 0 Z"
             style="fill:none;stroke:#313a3f;stroke-width:0.65799999;stroke-linecap:butt;stroke-linejoin:miter;stroke-miterlimit:10;stroke-dasharray:none;stroke-opacity:1"
             id="path72"
             inkscape:connector-curvature="0" /></g><g
           id="g74"
           transform="translate(118.587,25.1265)"><path
             d="M 0,0 -3.6,7.8 -7.2,0 Z m -4.1,8.9 h 1 L 3.1,-4.6 H 2 L 0.3,-0.899 H -7.5 L -9.2,-4.6 h -1.1 z"
             style="fill:#313a3f;fill-opacity:1;fill-rule:nonzero;stroke:none"
             id="path76"
             inkscape:connector-curvature="0" /></g><g
           id="g78"
           transform="translate(118.587,25.1265)"><path
             d="M 0,0 -3.6,7.8 -7.2,0 Z m -4.1,8.9 h 1 L 3.1,-4.6 H 2 L 0.3,-0.899 H -7.5 L -9.2,-4.6 h -1.1 z"
             style="fill:none;stroke:#313a3f;stroke-width:0.65799999;stroke-linecap:butt;stroke-linejoin:miter;stroke-miterlimit:10;stroke-dasharray:none;stroke-opacity:1"
             id="path80"
             inkscape:connector-curvature="0" /></g><path
           d="m 134.287,33.927 h 1 v -13.4 h -1 z"
           style="fill:#313a3f;fill-opacity:1;fill-rule:nonzero;stroke:#313a3f;stroke-width:0.65799999;stroke-linecap:butt;stroke-linejoin:miter;stroke-miterlimit:10;stroke-dasharray:none;stroke-opacity:1"
           id="path82"
           inkscape:connector-curvature="0" /><g
           id="g84"
           transform="translate(141.3873,33.9273)"><path
             d="m 0,0 h 0.9 l 9.3,-11.7 V 0 h 1 V -13.4 H 10.5 L 1,-1.5 V -13.4 H 0 Z"
             style="fill:#313a3f;fill-opacity:1;fill-rule:nonzero;stroke:none"
             id="path86"
             inkscape:connector-curvature="0" /></g><g
           id="g88"
           transform="translate(141.3873,33.9273)"><path
             d="m 0,0 h 0.9 l 9.3,-11.7 V 0 h 1 V -13.4 H 10.5 L 1,-1.5 V -13.4 H 0 Z"
             style="fill:none;stroke:#313a3f;stroke-width:0.65799999;stroke-linecap:butt;stroke-linejoin:miter;stroke-miterlimit:10;stroke-dasharray:none;stroke-opacity:1"
             id="path90"
             inkscape:connector-curvature="0" /></g><g
           id="g92"
           transform="translate(162.1871,32.9273)"><path
             d="M 0,0 H -4.7 V 0.899 H 5.7 V 0 H 1 V -12.5 H 0 Z"
             style="fill:#313a3f;fill-opacity:1;fill-rule:nonzero;stroke:none"
             id="path94"
             inkscape:connector-curvature="0" /></g><g
           id="g96"
           transform="translate(162.1871,32.9273)"><path
             d="M 0,0 H -4.7 V 0.899 H 5.7 V 0 H 1 V -12.5 H 0 Z"
             style="fill:none;stroke:#313a3f;stroke-width:0.65799999;stroke-linecap:butt;stroke-linejoin:miter;stroke-miterlimit:10;stroke-dasharray:none;stroke-opacity:1"
             id="path98"
             inkscape:connector-curvature="0" /></g><g
           id="g100"
           transform="translate(172.7872,33.9273)"><path
             d="M 0,0 H 9.5 V -0.9 H 1 V -6.2 H 8.7 V -7.101 H 1 V -12.5 h 8.7 v -0.9 H 0 Z"
             style="fill:#313a3f;fill-opacity:1;fill-rule:nonzero;stroke:none"
             id="path102"
             inkscape:connector-curvature="0" /></g><g
           id="g104"
           transform="translate(172.7872,33.9273)"><path
             d="M 0,0 H 9.5 V -0.9 H 1 V -6.2 H 8.7 V -7.101 H 1 V -12.5 h 8.7 v -0.9 H 0 Z"
             style="fill:none;stroke:#313a3f;stroke-width:0.65799999;stroke-linecap:butt;stroke-linejoin:miter;stroke-miterlimit:10;stroke-dasharray:none;stroke-opacity:1"
             id="path106"
             inkscape:connector-curvature="0" /></g><g
           id="g108"
           transform="translate(187.587,33.9273)"><path
             d="m 0,0 h 1 v -12.5 h 7.9 v -0.9 H 0 Z"
             style="fill:#313a3f;fill-opacity:1;fill-rule:nonzero;stroke:none"
             id="path110"
             inkscape:connector-curvature="0" /></g><g
           id="g112"
           transform="translate(187.587,33.9273)"><path
             d="m 0,0 h 1 v -12.5 h 7.9 v -0.9 H 0 Z"
             style="fill:none;stroke:#313a3f;stroke-width:0.65799999;stroke-linecap:butt;stroke-linejoin:miter;stroke-miterlimit:10;stroke-dasharray:none;stroke-opacity:1"
             id="path114"
             inkscape:connector-curvature="0" /></g><path
           d="m 201.487,33.927 h 1 v -13.4 h -1 z"
           style="fill:#313a3f;fill-opacity:1;fill-rule:nonzero;stroke:#313a3f;stroke-width:0.65799999;stroke-linecap:butt;stroke-linejoin:miter;stroke-miterlimit:10;stroke-dasharray:none;stroke-opacity:1"
           id="path116"
           inkscape:connector-curvature="0" /><g
           id="g118"
           transform="translate(207.8873,27.1265)"><path
             d="M 0,0 V 0 C 0,3.7 2.6,7 6.6,7 8.8,7 10.2,6.3 11.5,5.2 L 10.8,4.5 C 9.7,5.4 8.5,6.101 6.5,6.101 3.2,6.101 1,3.301 1,0.101 V 0 c 0,-3.5 2.2,-6 5.8,-6 1.7,0 3.3,0.7 4.3,1.5 v 3.9 H 6.6 v 0.9 h 5.5 V -4.899 C 10.9,-6 9,-6.899 6.8,-6.899 2.6,-6.899 0,-3.8 0,0"
             style="fill:#313a3f;fill-opacity:1;fill-rule:nonzero;stroke:none"
             id="path120"
             inkscape:connector-curvature="0" /></g><g
           id="g122"
           transform="translate(207.8873,27.1265)"><path
             d="M 0,0 V 0 C 0,3.7 2.6,7 6.6,7 8.8,7 10.2,6.3 11.5,5.2 L 10.8,4.5 C 9.7,5.4 8.5,6.101 6.5,6.101 3.2,6.101 1,3.301 1,0.101 V 0 c 0,-3.5 2.2,-6 5.8,-6 1.7,0 3.3,0.7 4.3,1.5 v 3.9 H 6.6 v 0.9 h 5.5 V -4.899 C 10.9,-6 9,-6.899 6.8,-6.899 2.6,-6.899 0,-3.8 0,0 Z"
             style="fill:none;stroke:#313a3f;stroke-width:0.65799999;stroke-linecap:butt;stroke-linejoin:miter;stroke-miterlimit:10;stroke-dasharray:none;stroke-opacity:1"
             id="path124"
             inkscape:connector-curvature="0" /></g><g
           id="g126"
           transform="translate(225.4874,33.9273)"><path
             d="M 0,0 H 9.5 V -0.9 H 1 V -6.2 H 8.7 V -7.101 H 1 V -12.5 h 8.7 v -0.9 H 0 Z"
             style="fill:#313a3f;fill-opacity:1;fill-rule:nonzero;stroke:none"
             id="path128"
             inkscape:connector-curvature="0" /></g><g
           id="g130"
           transform="translate(225.4874,33.9273)"><path
             d="M 0,0 H 9.5 V -0.9 H 1 V -6.2 H 8.7 V -7.101 H 1 V -12.5 h 8.7 v -0.9 H 0 Z"
             style="fill:none;stroke:#313a3f;stroke-width:0.65799999;stroke-linecap:butt;stroke-linejoin:miter;stroke-miterlimit:10;stroke-dasharray:none;stroke-opacity:1"
             id="path132"
             inkscape:connector-curvature="0" /></g><g
           id="g134"
           transform="translate(240.2872,33.9273)"><path
             d="m 0,0 h 0.9 l 9.3,-11.7 V 0 h 1 V -13.4 H 10.5 L 1,-1.5 V -13.4 H 0 Z"
             style="fill:#313a3f;fill-opacity:1;fill-rule:nonzero;stroke:none"
             id="path136"
             inkscape:connector-curvature="0" /></g><g
           id="g138"
           transform="translate(240.2872,33.9273)"><path
             d="m 0,0 h 0.9 l 9.3,-11.7 V 0 h 1 V -13.4 H 10.5 L 1,-1.5 V -13.4 H 0 Z"
             style="fill:none;stroke:#313a3f;stroke-width:0.65799999;stroke-linecap:butt;stroke-linejoin:miter;stroke-miterlimit:10;stroke-dasharray:none;stroke-opacity:1"
             id="path140"
             inkscape:connector-curvature="0" /></g><g
           id="g142"
           transform="translate(256.6871,27.1265)"><path
             d="M 0,0 V 0 C 0,3.8 2.8,7 6.7,7 9.1,7 10.5,6.101 11.9,4.8 L 11.2,4.101 C 10,5.2 8.7,6.101 6.7,6.101 3.5,6.101 1,3.5 1,0.101 V 0 c 0,-3.399 2.5,-6 5.7,-6 1.9,0 3.3,0.7 4.6,2.101 L 12,-4.6 C 10.6,-6 9,-7 6.7,-7 2.9,-6.899 0,-3.8 0,0"
             style="fill:#313a3f;fill-opacity:1;fill-rule:nonzero;stroke:none"
             id="path144"
             inkscape:connector-curvature="0" /></g><g
           id="g146"
           transform="translate(256.6871,27.1265)"><path
             d="M 0,0 V 0 C 0,3.8 2.8,7 6.7,7 9.1,7 10.5,6.101 11.9,4.8 L 11.2,4.101 C 10,5.2 8.7,6.101 6.7,6.101 3.5,6.101 1,3.5 1,0.101 V 0 c 0,-3.399 2.5,-6 5.7,-6 1.9,0 3.3,0.7 4.6,2.101 L 12,-4.6 C 10.6,-6 9,-7 6.7,-7 2.9,-6.899 0,-3.8 0,0 Z"
             style="fill:none;stroke:#313a3f;stroke-width:0.65799999;stroke-linecap:butt;stroke-linejoin:miter;stroke-miterlimit:10;stroke-dasharray:none;stroke-opacity:1"
             id="path148"
             inkscape:connector-curvature="0" /></g><path
           d="m 273.587,33.927 h 1 v -13.4 h -1 z"
           style="fill:#313a3f;fill-opacity:1;fill-rule:nonzero;stroke:#313a3f;stroke-width:0.65799999;stroke-linecap:butt;stroke-linejoin:miter;stroke-miterlimit:10;stroke-dasharray:none;stroke-opacity:1"
           id="path150"
           inkscape:connector-curvature="0" /><g
           id="g152"
           transform="translate(289.6871,25.1265)"><path
             d="M 0,0 -3.6,7.8 -7.2,0 Z m -4,8.9 h 1 L 3.2,-4.6 H 2.1 L 0.4,-0.899 H -7.5 L -9.2,-4.6 h -1.1 z"
             style="fill:#313a3f;fill-opacity:1;fill-rule:nonzero;stroke:none"
             id="path154"
             inkscape:connector-curvature="0" /></g><g
           id="g156"
           transform="translate(289.6871,25.1265)"><path
             d="M 0,0 -3.6,7.8 -7.2,0 Z m -4,8.9 h 1 L 3.2,-4.6 H 2.1 L 0.4,-0.899 H -7.5 L -9.2,-4.6 h -1.1 z"
             style="fill:none;stroke:#313a3f;stroke-width:0.65799999;stroke-linecap:butt;stroke-linejoin:miter;stroke-miterlimit:10;stroke-dasharray:none;stroke-opacity:1"
             id="path158"
             inkscape:connector-curvature="0" /></g><g
           id="g160"
           transform="translate(304.6871,27.1265)"><path
             d="M 0,0 V 0 C 0,3.7 2.6,7 6.6,7 8.8,7 10.2,6.3 11.5,5.2 L 10.8,4.5 C 9.7,5.4 8.5,6.101 6.5,6.101 3.2,6.101 1,3.301 1,0.101 V 0 c 0,-3.5 2.2,-6 5.8,-6 1.7,0 3.3,0.7 4.3,1.5 v 3.9 H 6.6 v 0.9 h 5.5 V -4.899 C 10.9,-6 9,-6.899 6.8,-6.899 2.6,-6.899 0,-3.8 0,0"
             style="fill:#313a3f;fill-opacity:1;fill-rule:nonzero;stroke:none"
             id="path162"
             inkscape:connector-curvature="0" /></g><g
           id="g164"
           transform="translate(304.6871,27.1265)"><path
             d="M 0,0 V 0 C 0,3.7 2.6,7 6.6,7 8.8,7 10.2,6.3 11.5,5.2 L 10.8,4.5 C 9.7,5.4 8.5,6.101 6.5,6.101 3.2,6.101 1,3.301 1,0.101 V 0 c 0,-3.5 2.2,-6 5.8,-6 1.7,0 3.3,0.7 4.3,1.5 v 3.9 H 6.6 v 0.9 h 5.5 V -4.899 C 10.9,-6 9,-6.899 6.8,-6.899 2.6,-6.899 0,-3.8 0,0 Z"
             style="fill:none;stroke:#313a3f;stroke-width:0.65799999;stroke-linecap:butt;stroke-linejoin:miter;stroke-miterlimit:10;stroke-dasharray:none;stroke-opacity:1"
             id="path166"
             inkscape:connector-curvature="0" /></g><g
           id="g168"
           transform="translate(322.2872,33.9273)"><path
             d="M 0,0 H 9.5 V -0.9 H 1 V -6.2 H 8.7 V -7.101 H 1 V -12.5 h 8.7 v -0.9 H 0 Z"
             style="fill:#313a3f;fill-opacity:1;fill-rule:nonzero;stroke:none"
             id="path170"
             inkscape:connector-curvature="0" /></g><g
           id="g172"
           transform="translate(322.2872,33.9273)"><path
             d="M 0,0 H 9.5 V -0.9 H 1 V -6.2 H 8.7 V -7.101 H 1 V -12.5 h 8.7 v -0.9 H 0 Z"
             style="fill:none;stroke:#313a3f;stroke-width:0.65799999;stroke-linecap:butt;stroke-linejoin:miter;stroke-miterlimit:10;stroke-dasharray:none;stroke-opacity:1"
             id="path174"
             inkscape:connector-curvature="0" /></g><g
           id="g176"
           transform="translate(348.8873,27.1265)"><path
             d="M 0,0 V 0 C 0,3.4 -2.4,6 -5.7,6 -9,6 -11.4,3.3 -11.4,0 v -0.1 c 0,-3.299 2.4,-6 5.7,-6 C -2.4,-6 0,-3.3 0,0 m -12.4,0 v 0 c 0,3.7 2.7,7 6.8,7 4.1,0 6.7,-3.2 6.7,-6.899 L 1.1,0 c 0,-3.7 -2.7,-7 -6.8,-7 -4.1,0 -6.7,3.4 -6.7,7"
             style="fill:#313a3f;fill-opacity:1;fill-rule:nonzero;stroke:none"
             id="path178"
             inkscape:connector-curvature="0" /></g><g
           id="g180"
           transform="translate(348.8873,27.1265)"><path
             d="M 0,0 V 0 C 0,3.4 -2.4,6 -5.7,6 -9,6 -11.4,3.3 -11.4,0 v -0.1 c 0,-3.299 2.4,-6 5.7,-6 C -2.4,-6 0,-3.3 0,0 Z m -12.4,0 v 0 c 0,3.7 2.7,7 6.8,7 4.1,0 6.7,-3.2 6.7,-6.899 L 1.1,0 c 0,-3.7 -2.7,-7 -6.8,-7 -4.1,0 -6.7,3.4 -6.7,7 z"
             style="fill:none;stroke:#313a3f;stroke-width:0.65799999;stroke-linecap:butt;stroke-linejoin:miter;stroke-miterlimit:10;stroke-dasharray:none;stroke-opacity:1"
             id="path182"
             inkscape:connector-curvature="0" /></g><g
           id="g184"
           transform="translate(354.6871,27.1265)"><path
             d="M 0,0 V 0 C 0,3.7 2.6,7 6.6,7 8.8,7 10.2,6.3 11.5,5.2 L 10.8,4.5 C 9.7,5.4 8.5,6.101 6.5,6.101 3.2,6.101 1,3.301 1,0.101 V 0 c 0,-3.5 2.2,-6 5.8,-6 1.7,0 3.3,0.7 4.3,1.5 v 3.9 H 6.6 v 0.9 h 5.5 V -4.899 C 10.9,-6 9,-6.899 6.8,-6.899 2.5,-6.899 0,-3.8 0,0"
             style="fill:#313a3f;fill-opacity:1;fill-rule:nonzero;stroke:none"
             id="path186"
             inkscape:connector-curvature="0" /></g><g
           id="g188"
           transform="translate(354.6871,27.1265)"><path
             d="M 0,0 V 0 C 0,3.7 2.6,7 6.6,7 8.8,7 10.2,6.3 11.5,5.2 L 10.8,4.5 C 9.7,5.4 8.5,6.101 6.5,6.101 3.2,6.101 1,3.301 1,0.101 V 0 c 0,-3.5 2.2,-6 5.8,-6 1.7,0 3.3,0.7 4.3,1.5 v 3.9 H 6.6 v 0.9 h 5.5 V -4.899 C 10.9,-6 9,-6.899 6.8,-6.899 2.5,-6.899 0,-3.8 0,0 Z"
             style="fill:none;stroke:#313a3f;stroke-width:0.65799999;stroke-linecap:butt;stroke-linejoin:miter;stroke-miterlimit:10;stroke-dasharray:none;stroke-opacity:1"
             id="path190"
             inkscape:connector-curvature="0" /></g><g
           id="g192"
           transform="translate(377.7872,26.9273)"><path
             d="m 0,0 c 2.2,0 3.9,1.1 3.9,3.1 v 0.099 c 0,1.801 -1.4,3 -3.9,3 h -4.6 v -6 z m -5.5,7 h 5.7 c 1.6,0 3,-0.5 3.7,-1.301 0.7,-0.699 1,-1.5 1,-2.5 V 3.1 C 4.9,0.899 3.3,-0.5 1,-0.7 L 5.4,-6.4 H 4.2 l -4.3,5.599 H -4.5 V -6.4 h -1 z"
             style="fill:#313a3f;fill-opacity:1;fill-rule:nonzero;stroke:none"
             id="path194"
             inkscape:connector-curvature="0" /></g><g
           id="g196"
           transform="translate(377.7872,26.9273)"><path
             d="m 0,0 c 2.2,0 3.9,1.1 3.9,3.1 v 0.099 c 0,1.801 -1.4,3 -3.9,3 h -4.6 v -6 z m -5.5,7 h 5.7 c 1.6,0 3,-0.5 3.7,-1.301 0.7,-0.699 1,-1.5 1,-2.5 V 3.1 C 4.9,0.899 3.3,-0.5 1,-0.7 L 5.4,-6.4 H 4.2 l -4.3,5.599 H -4.5 V -6.4 h -1 z"
             style="fill:none;stroke:#313a3f;stroke-width:0.65799999;stroke-linecap:butt;stroke-linejoin:miter;stroke-miterlimit:10;stroke-dasharray:none;stroke-opacity:1"
             id="path198"
             inkscape:connector-curvature="0" /></g><g
           id="g200"
           transform="translate(394.9874,37.5269)"><path
             d="m 0,0 1.1,-0.5 -2,-1.7 h -0.9 z m 2.1,-12.4 -3.6,7.799 -3.6,-7.799 z m -3.9,8.9 h 1 L 5.4,-17 H 4.3 l -1.7,3.7 H -5.3 L -7,-17 h -1.1 z"
             style="fill:#313a3f;fill-opacity:1;fill-rule:nonzero;stroke:none"
             id="path202"
             inkscape:connector-curvature="0" /></g><g
           id="g204"
           transform="translate(394.9874,37.5269)"><path
             d="m 0,0 1.1,-0.5 -2,-1.7 h -0.9 z m 2.1,-12.4 -3.6,7.799 -3.6,-7.799 z m -3.9,8.9 h 1 L 5.4,-17 H 4.3 l -1.7,3.7 H -5.3 L -7,-17 h -1.1 z"
             style="fill:none;stroke:#313a3f;stroke-width:0.65799999;stroke-linecap:butt;stroke-linejoin:miter;stroke-miterlimit:10;stroke-dasharray:none;stroke-opacity:1"
             id="path206"
             inkscape:connector-curvature="0" /></g><g
           id="g208"
           transform="translate(405.087,33.9273)"><path
             d="M 0,0 H 9.5 V -0.9 H 1 V -6.4 H 8.6 V -7.301 H 1 v -6 H 0 Z"
             style="fill:#313a3f;fill-opacity:1;fill-rule:nonzero;stroke:none"
             id="path210"
             inkscape:connector-curvature="0" /></g><g
           id="g212"
           transform="translate(405.087,33.9273)"><path
             d="M 0,0 H 9.5 V -0.9 H 1 V -6.4 H 8.6 V -7.301 H 1 v -6 H 0 Z"
             style="fill:none;stroke:#313a3f;stroke-width:0.65799999;stroke-linecap:butt;stroke-linejoin:miter;stroke-miterlimit:10;stroke-dasharray:none;stroke-opacity:1"
             id="path214"
             inkscape:connector-curvature="0" /></g><path
           d="m 419.687,33.927 h 1 v -13.4 h -1 z"
           style="fill:#313a3f;fill-opacity:1;fill-rule:nonzero;stroke:#313a3f;stroke-width:0.65799999;stroke-linecap:butt;stroke-linejoin:miter;stroke-miterlimit:10;stroke-dasharray:none;stroke-opacity:1"
           id="path216"
           inkscape:connector-curvature="0" /><g
           id="g218"
           transform="translate(426.1871,27.1265)"><path
             d="M 0,0 V 0 C 0,3.8 2.8,7 6.7,7 9.1,7 10.5,6.101 11.9,4.8 L 11.2,4.101 C 10,5.2 8.7,6.101 6.7,6.101 3.5,6.101 1,3.5 1,0.101 V 0 c 0,-3.399 2.5,-6 5.7,-6 1.9,0 3.3,0.7 4.6,2.101 L 12,-4.6 C 10.6,-6 9,-7 6.7,-7 2.8,-6.899 0,-3.8 0,0"
             style="fill:#313a3f;fill-opacity:1;fill-rule:nonzero;stroke:none"
             id="path220"
             inkscape:connector-curvature="0" /></g><g
           id="g222"
           transform="translate(426.1871,27.1265)"><path
             d="M 0,0 V 0 C 0,3.8 2.8,7 6.7,7 9.1,7 10.5,6.101 11.9,4.8 L 11.2,4.101 C 10,5.2 8.7,6.101 6.7,6.101 3.5,6.101 1,3.5 1,0.101 V 0 c 0,-3.399 2.5,-6 5.7,-6 1.9,0 3.3,0.7 4.6,2.101 L 12,-4.6 C 10.6,-6 9,-7 6.7,-7 2.8,-6.899 0,-3.8 0,0 Z"
             style="fill:none;stroke:#313a3f;stroke-width:0.65799999;stroke-linecap:butt;stroke-linejoin:miter;stroke-miterlimit:10;stroke-dasharray:none;stroke-opacity:1"
             id="path224"
             inkscape:connector-curvature="0" /></g><g
           id="g226"
           transform="translate(451.9874,25.1265)"><path
             d="M 0,0 -3.6,7.8 -7.2,0 Z m -4.1,8.9 h 1 L 3.1,-4.6 h -1 L 0.4,-0.899 H -7.5 L -9.2,-4.6 h -1.1 z"
             style="fill:#313a3f;fill-opacity:1;fill-rule:nonzero;stroke:none"
             id="path228"
             inkscape:connector-curvature="0" /></g><g
           id="g230"
           transform="translate(451.9874,25.1265)"><path
             d="M 0,0 -3.6,7.8 -7.2,0 Z m -4.1,8.9 h 1 L 3.1,-4.6 h -1 L 0.4,-0.899 H -7.5 L -9.2,-4.6 h -1.1 z"
             style="fill:none;stroke:#313a3f;stroke-width:0.65799999;stroke-linecap:butt;stroke-linejoin:miter;stroke-miterlimit:10;stroke-dasharray:none;stroke-opacity:1"
             id="path232"
             inkscape:connector-curvature="0" /></g></g><path
         id="path294"
         transform="matrix(0.75000002,0,0,-0.75000002,0,71.250002)"
         d="m 30.318359,7.5234375 c -15.361903,0 -27.8300778,12.4484815 -27.8300778,27.8300785 0,15.381598 12.4681748,27.828125 27.8300778,27.828125 V 52.230469 c -9.33531,0 -16.898437,-7.562931 -16.898437,-16.898438 0,-9.335114 7.563127,-16.896484 16.898437,-16.896484 7.407195,0 13.701787,4.782826 15.980469,11.416015 l 1.488281,-0.002 c 2.513894,-0.0077 5.123267,0.0063 7.601563,-0.01563 h 2.232422 c 0.354505,1.76859 0.562482,3.652469 0.564453,5.519532 0,-2.081735 0.385809,-4.199778 1.201172,-6.25 1.711473,-4.281639 4.979248,-7.491586 8.890625,-9.210938 L 64,9.8378906 C 59.582539,11.75026 55.651478,14.816467 52.697266,18.808594 47.627838,11.958807 39.488234,7.5234375 30.318359,7.5234375 Z M 58.185547,35.353516 c 0,6.199905 -2.035923,11.932264 -5.472656,16.5625 2.969968,4.015758 7.054386,7.282282 12.03125,9.27539 12.086666,4.817335 25.527234,0.577688 32.833984,-9.486328 5.065485,6.908917 13.174155,11.443246 22.310545,11.457031 V 52.25 c -9.31758,-0.02165 -16.85742,-7.574961 -16.85742,-16.896484 0,-9.335508 7.56313,-16.898438 16.89844,-16.898438 9.29592,0 16.83366,7.499132 16.89453,16.779297 h 10.93359 c -0.0532,-15.3363 -12.49971,-27.7109375 -27.82812,-27.7109375 -9.28017,0 -17.50295,4.4269705 -22.558596,11.3183595 2.144758,2.916792 3.696206,6.172228 4.529296,9.447265 0.13983,0.551454 0.30385,1.104603 0.4043,1.65625 0,0.0037 0.002,0.0079 0.002,0.01172 l -10.193359,4.22461 v 0.002 l -0.263672,0.107422 c 0.425407,1.951748 -0.10332,4.874355 -1.068359,7.304687 C 87.314923,50.281039 77.486002,54.495409 68.820312,51.048828 62.20879,48.405794 58.191455,42.059577 58.185547,35.353516 Z m 33.914062,-0.335938 c 0,1.551897 0.128373,3.077493 0.373047,4.566406 -0.244808,-1.488926 -0.373047,-3.014509 -0.373047,-4.566406 z"
         style="fill:#343a40;fill-opacity:1;fill-rule:nonzero;stroke:none;stroke-width:0.19694747;stroke-opacity:1"
         inkscape:connector-curvature="0" /><g
         style="fill:#ff7300;fill-opacity:1;stroke:none;stroke-opacity:1"
         transform="matrix(0.14771061,0,0,0.14771061,-0.54662367,2.9707599)"
         id="g1372"><g
           id="g292"
           transform="translate(299.1388,282.8169)"
           style="fill:#ff7300;fill-opacity:1;stroke:none;stroke-opacity:1"><path
             id="path290"
             transform="matrix(5.0774959,0,0,-5.0774959,-295.43816,179.43318)"
             d="m 57.591797,29.833984 -11.292969,0.01758 -15.980469,0.02539 V 40.808595 H 46.291016 C 44.045814,47.425833 37.775779,52.157402 30.435547,52.23047 h -0.117188 v 10.951172 h 0.09766 c 9.118668,0 17.231386,-4.43529 22.296875,-11.265625 3.436733,-4.630236 5.472656,-10.362594 5.472656,-16.5625 v -0.01367 c -0.002,-1.867062 -0.209948,-3.737271 -0.564453,-5.50586 h -0.02148 z"
             style="fill:#ff7300;fill-opacity:1;fill-rule:nonzero;stroke:none;stroke-width:0.19694747;stroke-opacity:1"
             inkscape:connector-curvature="0" /></g></g><path
         style="fill:#ff7300;fill-opacity:1;fill-rule:nonzero;stroke:none;stroke-width:0.14771061;stroke-opacity:1"
         d="M 55.94092,65.589845 C 53.832359,65.552585 51.756659,65.198797 49.785645,64.55127 49.666,64.511389 48.013295,63.877491 48.000001,63.871583 l 3.208008,-7.541016 c 3.013296,1.285082 6.492798,1.44768 9.771973,0.162598 1.861154,-0.723782 3.45674,-1.860422 4.727051,-3.263672 l -11.166504,-4.668457 1.628906,-3.695802 v -0.0015 l 0.08057,-0.181605 1.643555,-3.728027 10.993652,4.577636 0.197754,0.08203 7.643557,3.177246 c -0.07534,0.413589 -0.198352,0.828598 -0.303225,1.242188 -0.624817,2.456427 -1.788403,4.897855 -3.396972,7.085449 -2.218613,3.019205 -5.284055,5.557393 -8.945801,6.996094 -2.665438,1.046899 -5.430596,1.523003 -8.141601,1.475098 z"
         id="path270"
         inkscape:connector-curvature="0" /><path
         inkscape:connector-curvature="0"
         id="path250"
         style="fill:#ff7300;fill-opacity:1;fill-rule:nonzero;stroke:none;stroke-width:0.14771061;stroke-opacity:1"
         d="m 110.81811,44.750292 c 0,-0.812408 -0.0458,-1.613 -0.1359,-2.401922 -0.0708,-0.608568 -0.16691,-1.211079 -0.28641,-1.803546 -0.002,-0.0013 -0.002,-0.0028 -0.002,-0.0043 C 108.44735,31.0265 100.02785,23.878635 89.946598,23.878635 h -0.02954 v 8.183316 h 0.02954 c 0.21418,0 0.426883,0.0059 0.638257,0.01625 6.704437,0.330724 12.035315,5.869872 12.035315,12.657175 0,0.02969 0,0.05923 -0.001,0.08877 h 8.19942 z" /></g></g></svg>